<?xml version="1.0" encoding="UTF-8"?>
<svg version="1.1" viewBox="0 0 2000 2000" width="1280" height="1280" xmlns="http://www.w3.org/2000/svg">
<path transform="translate(461)" d="m0 0h1079l52 8 36 8 30 9 30 11 25 11 26 13 24 14 27 18 12 9 14 11 14 12 11 10 8 7 16 16 7 8 12 14 13 16 13 18 8 12 12 19 16 29 13 27 13 34 9 28 8 32 6 33 5 38v1068l-6 45-6 32-7 28-12 36-11 28-13 27-12 22-13 21-13 19-9 12-11 14-12 14-22 24-16 15-14 12-12 10-16 12-20 14-25 15-18 10-24 12-29 12-22 8-35 10-32 7-45 7-9 1h-1070l-22-3-33-5-34-7-31-9-26-9-26-11-27-13-23-13-16-10-19-13-12-9-14-11-15-13-10-9-8-7v-2l-4-2v-2l-4-2-7-8-7-7-9-11-12-14-12-16-14-20-11-18-12-21-14-28-13-32-11-33-8-30-7-38-5-38v-1077l8-52 7-31 9-31 10-28 11-26 8-16 12-23 14-23 11-16 10-14 11-14 11-13 9-10 7-8 22-22 11-9 11-10 13-10 16-12 18-12 18-11 16-9 17-9 24-11 26-10 27-9 40-10 34-6z"/>
<path transform="translate(1305,248)" d="m0 0h34l24 3 21 5 19 7 18 10 12 9 10 9 10 14 5 10 5 16 1 8 1 22v22l-2 9-4 6-6 5-9 2h-7l-7-3-5-7-2-7-2-33-3-16-4-10-8-11-11-7-14-6-16-4-6-1h-35l-31 4-28 6-33 9-31 10-31 11-33 14-29 13-29 14-23 13-28 15-24 14-18 11-20 13-24 15-24 16-23 16-17 12-18 13-12 9-18 14-13 11-11 9-28 24-10 9-8 7-14 12-10 9-16 15-13 12-19 19-7 8-9 10-1 2h-2l-2 4-12 15-13 18-10 15-13 23-9 20-8 22-5 22-1 6v38l5 22 8 16 7 11 5 6 17 13 10 7 18 11 23 12 33 14 61 25 73 28 38 15 34 13 24 10 39 16 20 8 30 13 27 12 23 12 16 9 17 11 16 12 11 10 8 7 18 20 13 17 16 21 8 11 4 1 13-8 13-9 19-14 21-16 36-27 18-14 12-9 21-16 14-10 57-42 14-10 16-11 19-14 15-10 11-5 9-2 10 1 7 4 4 4 2 7-1 11-5 9-13 11-16 12-54 39-14 10-19 14-14 10-38 28-18 13-14 10-38 28-18 14-14 11-10 8-18 14-4 3 1 9 2 17 1 27-2 25-4 23-7 29-7 25-10 30-13 32-17 35-12 23-10 17-10 16-11 17-14 19-9 12-10 13-11 13-9 11-14 15-9 10-3 4h-2l-2 4-10 10-7 8-25 25-8 7-15 13-14 12-13 10-21 16-19 13-14 10-28 16-27 14-29 14-33 14-37 12-16 4-25 3h-21l-14-2-13-5-8-6-10-10-8-13-5-14-1-4v-19l4-20 6-18 8-18 10-18 18-27 14-18 9-11 9-10 9-11 11-12 9-11 11-12 7-8 15-16 22-24 71-71 8-7 13-12 8-7 14-12 10-9 12-11 10-9 28-24 11-9 13-11 10-8 15-13 10-9 8-7 14-12 13-11 16-12 17-14 14-11 11-9 16-13 14-11 13-11 9-7v-4l-9-14-9-13-9-12-9-10-12-12-11-9-16-13-19-13-15-10-27-16-24-13-33-15-26-12-37-15-29-11-105-38-40-15-34-14-28-11-30-14-24-14-17-12-11-9-13-12-7-7-13-17-12-20-6-18-3-16-1-11v-27l3-23 5-22 7-21 14-29 13-22 20-30 13-17 11-13 9-11 8-8 7-8 9-10 4-5h2l2-4 59-59 11-9 14-13 14-11 15-12 13-10 18-14 19-14 21-16 34-24 18-13 39-26 22-14 21-13 15-9 17-10 21-12 24-13 19-10 29-14 29-13 35-14 30-10 33-9 26-5z" fill="#FEFEFE"/>
<path transform="translate(1197,1327)" d="m0 0h3v46l-3 25-6 28-14 43-12 29-9 20-10 20-12 22-9 15-10 16-16 23-12 17-10 13-12 14-11 12-7 7-9 11-11 11-7 8-11 12-30 30h-2v2l-8 7-10 9-28 22-13 10-22 15-15 10-19 11-14 8-16 8-23 11-25 9-22 7-37 7h-22l-12-4-7-5-1-3v-18l4-18 6-15 10-18 14-22 13-18 10-13 9-11 12-14 9-10 13-15 12-13 7-8 12-13 7-8 7-7 7-8 6-7 4-4h2v-2h2l2-4 42-42 8-7 8-8 8-7 13-12 8-7 12-11 8-7 11-10 11-9 11-10 10-8 15-13 28-24 12-11 11-9 10-9 28-22 11-9 16-13 13-11 11-9 13-11 22-18z"/>
</svg>
